<?xml version="1.0" encoding="utf-8"?>
<!-- Generator: Adobe Illustrator 23.0.1, SVG Export Plug-In . SVG Version: 6.00 Build 0)  -->
<svg version="1.1" id="Layer_1" xmlns="http://www.w3.org/2000/svg" xmlns:xlink="http://www.w3.org/1999/xlink" x="0px" y="0px"
	 viewBox="0 0 800 184" style="enable-background:new 0 0 800 184;" xml:space="preserve">
<style type="text/css">
	.st0{fill:none;}
	.st1{fill:#D54932;}
	.st2{fill:#85C16F;}
	.st3{fill:#43453A;}
	.st4{fill:#EEA947;}
	.st5{fill:#873186;}
	.st6{fill:#4ED5F9;}
	.st7{fill:#4E201C;}
	.st8{fill:#E0437D;}
	.st9{fill:#37313C;}
	.st10{fill:#253336;}
	.st11{fill:#233E45;}
	.st12{fill:#A7BD5A;}
	.st13{fill:#4ED6FA;}
	.st14{fill:#4A4441;}
	.st15{fill:#232728;}
	.st16{fill:#000001;}
	.st17{fill:#171717;}
	.st18{fill:#0F0F0F;}
	.st19{fill:#161616;}
</style>
<!-- Background rectangle removed for transparency -->
<path class="st1" d="M58.1,18.9c0.7,4.2,2.4,7.9,1.7,12.1c-3.4,21.3-1,44.2-4.3,65.6c-1.3,8-3.7,16.1-7.6,23.3
	c-4,7.3-9.8,13.6-16.7,18.3c-2.2,1.5-4.6,3.2-7.1,3.9c-2.3,0.3-4.6,0.5-6.9,0.7c-3.1-2.8-4.9-5.4-6.7-9.2c3.5-3.3,6.3,0.9,10.4-0.8
	c4.7-1.6,8.5-5.7,11.8-9.2c2-2.2,4.5-4.8,5.4-7.7c9.3-31.9,8.7-63.3,10.3-96c0.4-1.8-0.3-4.3,2.1-4.6C54.2,14.1,55.8,16.7,58.1,18.9
	z"/>
<path d="M58.1,18.9c3.6,2.7,3.6,6.3,4.7,10.2c0.7,2,0.5,3.8,0.1,5.8c-1.2,7.6-1.6,15.3-1.8,23c0,7.7-0.6,15.3-0.6,23
	c-0.8,14.3-2.1,28.6-8.9,41.5c-5.1,9.9-13.4,17.7-23.2,22.9c-4,1.9-8.2,0.8-11.4-2.2c2.3-0.4,4.7-0.6,7-1c2.6-0.7,5-2.4,7.1-3.9
	c6.9-4.8,12.7-11,16.7-18.3c3.9-7.2,6.3-15.3,7.6-23.3c3.3-21.4,0.9-44.3,4.3-65.6C60.5,26.8,58.8,23.1,58.1,18.9z"/>
<path class="st1" d="M395,26.5c3.5-0.7,4.9,1.7,7,3.8c0.6,4.2,2.2,7.6,1.6,11.7c-0.4,4-1.1,7.9-1.6,11.9c-1.1,7.4-1.2,15-0.7,22.5
	c-0.2,16.5-0.6,35.2-7.5,50.5c-5,11.3-13.9,20.5-24.8,26.3c-2.3,1.2-5.5,1-8,1.2c-3.1-2.9-5.1-5.6-6.8-9.5c3.7-2.8,6.6,1,10.7-0.6
	c5.6-2,10.2-7.7,14.1-12.1c3.2-3.5,3.5-7.6,4.8-12c7.1-28.1,6.9-59.1,8.3-88C392.6,29.8,391.7,26.4,395,26.5z"/>
<path d="M402,30.3c4,3.3,3.3,7.5,5.3,12c-1.9,11.2-2.4,22.4-2.5,33.8c-0.7,17.8-0.1,35-6.7,52c-4.8,12.5-14.3,22.8-26.2,28.9
	c-4,1.4-8,0.9-10.8-2.5c2.6-0.2,5.7,0,8-1.2c10.9-5.8,19.8-15,24.8-26.3c6.8-15.3,7.2-34,7.5-50.5c1.2-7.5,0.3-14.9,0.7-22.5
	c0.5-4,1.2-7.9,1.6-11.9C404.2,37.9,402.7,34.4,402,30.3z"/>
<path class="st2" d="M608.1,43.3c3.8-1.3,5.6,0.5,8,3c0.7,2.9,1.4,5.8,3.2,8.3c2.6,4,4.7,8.3,6.9,12.5c0.8-0.6,1.5-1.2,2.2-1.9
	c6-5.8,11.8-13.4,19.2-17.6c4.5-2.6,10.6-4.1,15.5-1.7c0.5,1.2,0.5,2.4,0.3,3.8c-3.5,6.5-9.7,7.1-14.8,11.8
	c-2.3,2.2-5.1,3.5-7.7,5.2c-2.7,1.9-3.8,5.1-5.1,7.9l-1.5,0.9c-1.6,10.1,1.2,20.5-1.6,30.1c-0.2,0.8-0.1,1.6,0.2,2.5
	c-0.8,1.2-1.8,2.2-3,3.1c-2.1,0.6-3.1,1.5-4.2-1.1c-2.6-7.3-1.6-16.5-1.5-24.2c-0.1-1.7,0.1-3.6-1-5c-4-5.3-9.6-10-13.3-15.7
	c-3.2-4.9-4.9-10.4-4.5-16.2C605.6,46.6,605.1,43.9,608.1,43.3z"/>
<path class="st3" d="M616.1,46.3c1.6,1.4,3.2,2.6,3.8,4.7c1,3.3,2.2,6,4.2,8.8c1.3,1.7,2.1,4.8,4.3,5.4c-0.7,0.6-1.5,1.3-2.2,1.9
	c-2.2-4.2-4.3-8.5-6.9-12.5C617.6,52.1,616.8,49.3,616.1,46.3z"/>
<path class="st4" d="M455.9,48.1c1.1,0.6,1.8,2.1,2.5,3.2c1.2,5.7,0.5,11.1-0.2,16.7c-0.6,4.2,0.3,7.7-1.8,11.4
	c-3.1,5.9-4.2,11.9-8.4,16.7c-3,3.5-7.5,5.9-12,6.8c-4.6,0.9-8.4-0.9-12.5-2.7c-3.6-3.2-5.9-6.5-7.7-11c-3.8-8-3-16.6-1.8-25.1
	c0.4-1.8,0.5-4.6,2.1-5.8c3.4-0.3,5.9,2.2,8.1,4.4c2.7,8.3-0.9,15.6,3.4,22.6c1.5,2.4,2.2,5,5,6c3-0.7,5.7-1.2,7.6-3.8
	c2.8-3.8,5.1-8.4,7.1-12.6c1.1-5.9-0.9-13.9,1.4-19.9C449.9,52,452.6,48.6,455.9,48.1z"/>
<path class="st5" fill-rule="evenodd" d="M562.7,48c2.7,1.4,5.2,3.3,8.3,3.6c5.7,0.6,11.4-0.3,16.9,1.5c3.1,1,5.1,3.2,7.3,5.5c0.8,2,1.9,4.2,1.9,6.4c-0.1,8.8-4.4,17.6-12.3,21.9c-4.1,2.3-9.4,1.2-12.8,4.2c-3.3,2.7-4.7,6.9-5.1,10.9c-0.5,4.2,0.8,8,0.7,12.1c-0.8,3.4-5.8,3.6-8.5,4.4c-1.1-0.6-2.3-1.2-3.4-1.8c-0.1-4.2-0.5-8.4-0.5-12.6c0-16.2,3.5-31.1,5.2-47C561,53.8,560.5,50.6,562.7,48z M584.6,64l0.7-0.2c0,2.6,0.4,5.2-0.9,7.5c-2.1,3.7-6,6.4-9.7,8.3c0.1-3.1-1-8.2,1.4-10.6c2.1-2.7,6.9-0.6,8.8-2.4c0.2-0.7,0.1-1.4-0.1-2.2L584.6,64z"/>
<path d="M667.8,50.8c-1,2.1-1.8,4-3.4,5.7c-2.8,2.8-6.4,4.2-9.7,6.3c-2.6,1.7-4.4,4.2-7.4,5.6c-3.4,1.6-6.1,4.1-7.4,7.7
	c-3.8,10.5,1.3,22.3-2.3,32.7c-1.2,3.6-3.7,5.7-7,7.5c-0.8-1.3-1.6-2.6-2.3-3.9l1.3-1.1c1.2-0.9,2.1-1.9,3-3.1
	c3.1-4.2,3-10.3,2.8-15.2c-0.3-6.1-0.6-12.2,0.1-18.2c1.4-2.8,2.5-6,5.1-7.9c2.6-1.8,5.4-3,7.7-5.2c5.1-4.8,11.2-5.4,14.8-11.8
	C665,47.5,666.4,49.7,667.8,50.8z"/>
<path class="st2" d="M239,50.6c2.8,0.8,5.6,2.3,8.5,2.8c9.5,1.4,20.8-3.8,29.9-0.8c2.3,0.7,1.3,2.3,1.1,4c-1.8,1.9-3.4,3.7-5.9,4.7
	c-7,2.9-15.4,1.5-22.6,3.6c-2.8,0.9-5.3,2.6-6.5,5.4c-1.4,3-1.2,6.5-0.9,9.7l0,0.2c7.7-0.3,14.9,2.1,22.6,2.1
	c2.5,0.1,5.1-0.2,7.5,0.1c1.3,1.3,1,3.8,0.5,5.5c-0.9,2-2.5,3.5-4,5c-9.1-1.3-18.6-2.2-27.2,1.5c1.6,3.9,3,7.6,6.3,10.4
	c2.3,1.8,5.2,3.3,8,4.1c3.4,0,7.1-3.2,10.4-2.5c1,0.9,1.8,2,2.7,3c-0.7,1.9-0.9,5.1-2.4,6.5c-8.9,3.7-18.9,2.8-27.2-2
	c-3.6-3.5-6.8-6.8-8.1-11.8c-3.2-12.6-3.9-25.8,0-38.3C233.2,59.2,235.4,54,239,50.6z"/>
<path d="M458.4,51.3c1.3,0.7,2.5,1,2.9,2.6c2.1,5.8,0.7,13.2,0,19.2c-0.5,3.3,0.7,6.1-1.2,9.1c-3.4,6.2-4.6,13.3-9.6,18.4
	c-3.7,3.6-9.2,6.2-14.5,5.8c-5-0.2-9.1-2.7-12.4-6.2c4.1,1.8,7.9,3.6,12.5,2.7c4.5-0.9,9-3.3,12-6.8c4.2-4.8,5.3-10.7,8.4-16.7
	c2-3.7,1.1-7.1,1.8-11.4C458.9,62.3,459.6,56.9,458.4,51.3z"/>
<path class="st6" d="M138,52.7c2.2-0.2,3.4,1.7,5.2,2.6c3.1,0.6,6.9,0.2,9.9,1.3c2.4,0.9,4.2,2.6,5.9,4.4c0.9,3.7,1.9,7.1,0.7,10.9
	c-1.6,5-5.6,8.5-7.9,13c-0.7,1.3-0.9,2.4-0.6,3.9c0.9,0.7,2,0.9,3,1.2c10.8,1.9,19.9,6.8,30,10.6c2.2,0.7,3.4,2.2,4.8,3.8
	c-4.8,2.5-9.9,2.3-15.1,1.9c-11.6-1.2-21.6-6.3-33-7.5c-1.8-0.1-3.2-0.6-4.4,1.1c-0.1,3.3,1.8,6.8,1.4,10c-1,3.5-4,3.7-7,4.5
	c-0.9-0.5-1.9-1-2.8-1.7c-1.3-4.4-1.5-9.2-1.4-13.8c0.7-15.1,6-28.9,7.2-44C134.4,52.6,136.1,52.8,138,52.7z"/>
<path class="st7" d="M402,53.9c-0.4,7.6,0.5,15-0.7,22.5C400.8,68.9,400.9,61.3,402,53.9z"/>
<path class="st4" d="M79.9,54.9c3.4,1.4,6.3,3.2,10.1,3.3c8.9,0.5,18.8-3.4,27.9-1.1c1.3,0.1,1.5,2.3,1.9,3.3
	c-3.6,5.1-8.8,6.9-14.8,7.4c-5.7,0.8-13.8,0.1-18.4,3.9c-3.9,3.3-3.6,7.6-3.8,12.3c1,0.2,2.1,0.4,3.2,0.5c8.7,1.4,17.3,2.9,26.2,2.3
	c2.5-0.2,2.3,3.5,2,5.2c-0.9,2.2-3.3,6-6.1,5.3c-7.9-0.8-16.2-1.6-23.9,1.1c-1.1,0.3-1.4,0.9-1,1.7c0.8,3.6,2.9,6.8,5.6,9.3
	c2.2,1.8,5.6,3.6,8.3,4.4c3-0.6,5.9-2.4,8.9-2.9c2.2-0.1,2.6,1.8,3.8,3.3c-0.7,2.6-0.5,6.4-3.8,7.1c-8.7,2.7-18.3,2-26-3.2
	c-3.4-3.2-6.4-6.5-7.7-11.1c-2.6-10.3-3.8-21.2-1.7-31.7C71.9,68,74.6,60.1,79.9,54.9z"/>
<path d="M283,57.9c-1.4,2.7-3.1,5-5.9,6.3c-7.7,4-18.3,1.5-25.9,5c-4.4,2.2-5.3,6-5.9,10.5c-1,0.1-1.9,0.2-2.9,0.3
	c-0.2-3.2-0.5-6.7,0.9-9.7c1.2-2.7,3.7-4.5,6.5-5.4c7.2-2.1,15.6-0.8,22.6-3.6c2.5-1,4.1-2.8,5.9-4.7
	C280.5,54.6,281.2,56.6,283,57.9z"/>
<path class="st8" d="M289,56.6c2.7-0.2,4.1,2,5.9,3.6c0.4,2.9,1.2,5.6,2.8,8c2.6,3.8,4.4,7.9,6.6,12l1.6-0.4
	c7.1-6.6,12.6-14.7,21.6-19.3c4.7-2.4,9.9-2.6,14.8-0.7c0,0.8,0,1.6,0,2.4c-2.7,7.7-10.2,8-16.1,13.9c-3,2.7-7,3.6-9.1,6.9
	c-3,4.4-3.2,9.9-3.2,15c0.1,6.8,1.5,14.3-0.8,20.9c-1,2.9-3,4.8-5.3,6.7c-1.5-0.3-2.9,0-3.5-1.8c-1.6-4-1.7-8.6-1.6-12.9
	c0.1-5.1-0.1-10.1,0-15.2c-4.4-5.7-9.8-10.5-13.9-16.3c-4.2-5.9-5.9-13.3-4.4-20.4C284.8,56.8,287,56.8,289,56.6z"/>
<path class="st6" d="M474,58.2c6.4-0.8,11,1.4,15.1,6.1c3.9,7.9,4.7,16.6,8.6,24.5c0.6-0.4,1.1-0.8,1.7-1.2
	c9.4-7.3,17.6-16,27.7-22.6c1.2-0.6,2.6-1.8,4-1.6c1.1,0.9,2.2,1.9,3.2,3c1.7,3.6,3.5,6.9,4.5,10.8c2.7,9.7,2.3,19.2,3.4,28.8
	c0.3,3.8,1.8,7.3,2.5,11.1c-1.2,2.5-5,1.9-7.2,1.9c-3.2-3-4.9-6.1-6-10.3c-2.4-8.4-0.8-17.3-3.1-25.6c-0.7-1.4-1.6-2.8-2.5-4.1
	c-11.6,8.5-20.4,19.8-30.8,28.8c-1.4-1.3-2.7-2.6-3.6-4.3c-3.8-7.3-4.8-14.9-7.9-22.4c-0.8-1.9-1.7-3.8-2.8-5.5
	c-4,10.3-6.7,21.2-10.6,31.5c-1,2.6-2.3,5.1-3.8,7.5c-1-0.2-2.1-0.3-3.1-0.5c-1.8-2-4.5-4.1-4.1-7.1c0.4-5,5.4-9.3,6.5-14.2
	c1.9-9.9,1.7-20.8,4.8-30.4C471.1,60.7,471.5,58.2,474,58.2z"/>
<path d="M595.2,58.6c2,1.9,3.7,3.9,4.7,6.5c1.4,3,0.5,6.3-0.1,9.4c-1.7,6.8-5.7,12.9-12.2,16.1c-4.1,2.1-8.3,0.7-12.2,3.8
	c-5.1,4.2-5.7,11.4-5,17.6c0.1,2.6,1.5,5.6-0.8,7.6c-2.5,1.6-5.8,2.1-8.7,2c-0.8-0.9-1.4-2-1.8-3.2c2.7-0.8,7.6-1.1,8.5-4.4
	c0.1-4-1.2-7.9-0.7-12.1c0.5-4.1,1.8-8.3,5.1-10.9c3.4-3,8.7-1.9,12.8-4.2c8-4.3,12.2-13,12.3-21.9
	C597.1,62.8,596.1,60.6,595.2,58.6z"/>
<path d="M119.8,60.3c2,0.4,3.1,0.3,3.5,2.7c-2.1,4.9-6.9,6.8-11.8,7.6c-6.3,1.2-14.7,0.2-20.3,3.5c-3.9,2.4-4.6,6-5.3,10.2
	c-1.1-0.2-2.1-0.4-3.2-0.5c0.2-4.7-0.1-9,3.8-12.3c4.6-3.8,12.8-3.1,18.4-3.9C111,67.3,116.2,65.4,119.8,60.3z"/>
<path d="M159.1,61c4.3,3.4,5.2,9,4.1,14.2c-1.7,5.4-6.2,9.6-8.9,14.9c-1-0.3-2.2-0.6-3-1.2c-0.3-1.4,0-2.6,0.6-3.9
	c2.3-4.5,6.3-8,7.9-13C161,68.1,160,64.7,159.1,61z"/>
<path class="st9" d="M294.9,60.2c3.8,2.7,3.7,6.5,5.7,10.2c2.1,3,3.9,6,5.3,9.4l-1.6,0.4c-2.1-4-4-8.2-6.6-12
	C296.1,65.8,295.3,63.1,294.9,60.2z"/>
<path d="M342.2,62.2c1.4,0.5,2.8,1.2,4.1,1.8c-1,2.3-1.9,4.8-3.8,6.5c-3.7,3.3-8.3,4.6-12,8.1c-1.8,1.8-3.7,3-5.9,4.1
	c-3.3,1.7-5.6,4.8-6.6,8.3c-2.7,9.6,1.2,21.1-1.6,30.5c-1,3.3-3.7,7.7-7.6,7.8c-0.7-1-1.4-2-2-3.1l0.6-0.6c2.3-1.9,4.4-3.8,5.3-6.7
	c2.3-6.6,1-14.1,0.8-20.9c-0.1-5.2,0.1-10.6,3.2-15c2.1-3.3,6.1-4.2,9.1-6.9C332,70.2,339.5,69.9,342.2,62.2z"/>
<path d="M424.3,62.6c1.3,1.4,2.8,2.7,3.5,4.6c1.8,5.5,0.7,10.4,1.2,15.8c0.1,3.3,2.2,5.5,3.8,8.2c-2.8-1-3.5-3.7-5-6
	C423.4,78.2,427,70.9,424.3,62.6z"/>
<path d="M575.1,64.3c3.1-0.4,6.4-0.3,9.5-0.3l0.1,0.5c0.3,0.8,0.3,1.5,0.1,2.2c-1.9,1.8-6.7-0.3-8.8,2.4c-2.4,2.4-1.3,7.5-1.4,10.6
	c-0.9,0.4-1.8,0.8-2.6,1.2c-0.4-3.9-1.1-8-0.7-11.9C571.4,66.8,572.8,64.6,575.1,64.3z"/>
<path class="st10" d="M489.1,64.4c6.9,5.8,7,15.4,10.3,23.3c-0.6,0.4-1.1,0.8-1.7,1.2C493.8,80.9,493,72.2,489.1,64.4z"/>
<path class="st5" d="M206,66c4.6-0.6,8.9,1.3,12.1,4.5c0.5,1.4,0.3,2.8,0.1,4.2c-1.1,2.2-2.6,3.8-5.2,3.8c-3.6,0.2-7.8-1.6-10.8,0.7
	c-3.5,2.2-5.8,5.6-5.2,9.8c1,8.1,7.1,16.1,9.6,23.8c0.9,2.9,1.4,5.9-0.1,8.8c-1.4,2.5-3.8,3.8-6.4,4.7c-3.8,1.2-8,1.4-12,1l-2.1-0.6
	c-0.7-3-1.9-5.4,0.8-7.9c2.3-1.5,5.8-1.3,8.5-1.8c-1.3-3.2-2.6-6.4-4.1-9.6l-0.3-0.7c-2.2-7.3-4.4-14-3.3-21.8
	c0.7-4.3,2.2-9.1,4.9-12.5C196,68.9,201.1,66.7,206,66z"/>
<path d="M534.2,66.4c5.3,4.7,7.7,12.9,9,19.6c2.3,11.2,0.5,24.1,5,34.4c-1.3,1.1-2.4,2.1-4.3,2.2c-2.9,0.1-4.7-1.8-6.7-3.7
	c2.2,0,6,0.6,7.2-1.9c-0.6-3.8-2.1-7.3-2.5-11.1c-1.1-9.7-0.7-19.1-3.4-28.8C537.7,73.3,535.9,70,534.2,66.4z"/>
<path class="st11" d="M148.1,67.9c-1,3.9-2.6,6.9-5.8,9.5c0.6-2.8,1.1-6.1,2.8-8.4C146,68.6,147.1,68.3,148.1,67.9z"/>
<path d="M219.7,71.9c1,1.3,1.9,2.6,2.5,4.1c-0.6,2.5-1.6,5.1-4.4,5.8c-2.2,0.2-4.6-0.2-6.8-0.4c-3.2-0.8-6.6,1.8-8.7,4.1
	c-2.8,3.3-2.4,7.5-1.1,11.4c2.4,7.7,7.8,14.4,9.4,22.2c1,4-1,8.2-4.8,9.8c-4.3,1.8-9.3,2.1-13.9,2.1c-2.2,0.2-2.4-2-3.5-3.5
	l-0.3-0.2c4,0.3,8.2,0.1,12-1c2.6-0.8,5-2.1,6.4-4.7c1.5-2.9,1-5.8,0.1-8.8c-2.6-7.7-8.6-15.7-9.6-23.8c-0.6-4.3,1.6-7.7,5.2-9.8
	c3-2.3,7.2-0.5,10.8-0.7c2.6,0.1,4.1-1.6,5.2-3.8C218.8,73.8,219.2,72.8,219.7,71.9z"/>
<path class="st12" d="M634.2,75.6l1.5-0.9c-0.7,6.1-0.4,12.1-0.1,18.2c0.1,4.9,0.2,11-2.8,15.2c-0.3-0.9-0.4-1.7-0.2-2.5
	C635.5,96.2,632.7,85.7,634.2,75.6z"/>
<path d="M480.7,75.6c1.1,1.8,2,3.6,2.8,5.5c-4.4,10.7-6.8,22.3-11.5,32.9c-0.7,1.4-1.5,3.5-3,4.1c-2.4-0.8-4.1-2.3-5.8-4.1
	c1,0.2,2.1,0.3,3.1,0.5c1.5-2.4,2.8-4.8,3.8-7.5C474.1,96.8,476.7,86,480.7,75.6z"/>
<path class="st1" d="M676,78.2c3.7,0.4,5.4,2.9,7.9,5.2c-0.3,1.6-0.6,3.2-1,4.7c-0.4,2.1-1.8,2.1-3.6,2.7c-0.6-0.3-1.1-0.5-1.7-0.8
	c-0.9-1-1.8-2.1-2.8-3c-3,0.1-4.7,3.5-5.1,6c-0.6,4.6-0.4,9.4,0.1,14c0.1,2.2,1.7,3,3.2,4.4c4,0.4,7.7-0.6,11.7-0.7
	c0.2,1.3,0.5,2.6,0.7,3.9c-1.3,1.3-2.5,3.4-4.4,3.7c-4.3,1-9.4-0.1-13.7-0.8c-3.3-3.1-5.9-6.4-7-11c-1.3-6-1-12.6,0.4-18.5
	C661.9,81.2,669.8,77.5,676,78.2z"/>
<path d="M525.8,79.1c0.9,1.3,1.7,2.7,2.5,4.1c-9.4,7.4-17.2,16.1-25.6,24.5c-1.3,1.2-2.8,3-4.6,3.4c-1.2-0.8-2-2.1-3-3.1
	C505.4,98.8,514.2,87.5,525.8,79.1z"/>
<path class="st4" d="M712,78.6c4.9,1.4,8.7,5.4,12.2,8.9c3.2,7,2.9,13.4-0.5,20.2c-2,3.7-4.7,8.5-8.8,10.2c-2.8,1.3-5.8,2.3-8.9,2.4
	c-2.6,0-5.3-1.2-7.7-2c-2.7-2.8-5.3-5.1-6.7-8.9c-2.5-6.6-2-13.3-0.1-20c0.9-3.2,3.7-5.8,6.2-7.8c1.7-1.3,4.2-2.6,6.3-1.8
	c1.8,0.5,2.3,2.6,3,4c-1.9,3.1-5.3,5.3-6.5,8.6c-1.2,3.3-1.7,7-1.3,10.5c0.2,2.5,2,4.4,3.6,6.2c1.7,1.3,3.3,3.2,5.7,2.2
	c3.2-2,7.4-6.4,9.1-9.8c1.6-2.9,1-5.8,0-8.7c-1.3-2.8-3.6-3.8-6.2-5c-0.3-0.2-0.6-0.3-0.9-0.5c-1.7-1.2-2.3-2.3-2.9-4.3
	C708.5,81.7,710,78.3,712,78.6z"/>
<path class="st13" d="M737.4,83.4c5.1-1.9,8.9,0.7,12.3,4.3c1.9,4.9,2.8,10.2,5.1,14.9l1.6-1.3c6.2-5,12.2-11.8,19.5-15.1
	c1.2,0.9,2.3,2.1,3.4,3.1c1.6,3.8,3.1,7.6,3.5,11.7c0.8,5.4,0.5,10.7,1.7,16c0.4,1.7,0.8,3.3,1.1,5.1c-0.8,1.7-3.5,1.6-5,2
	c-6.8-5.9-5-13.4-6.3-21.3c-0.4-1.7-0.9-3.3-1.4-4.9c-7.3,5.5-13.2,12.7-20,18.9c-4.8-4.3-5.2-10-7.5-15.8c-0.5-1.5-1.2-2.9-1.9-4.3
	c-2.6,7-4.3,14.5-7.3,21.4c-0.7,1.7-2,2.5-3.3,3.5c-1.5-1.7-4.5-4-4-6.5c0.7-3.4,3.7-6.4,4.3-10C734.5,98.3,733.7,89.3,737.4,83.4z"
	/>
<path d="M684.5,83.4c2.6,3.2,3.7,7.5,0.3,10.5c-2.6,1.3-4-1.6-5.5-3.1c1.8-0.6,3.2-0.6,3.6-2.7C683.5,86.5,684,84.9,684.5,83.4z"/>
<path d="M707,83.9l0.5-0.8c0.7,1.9,1.3,3.1,2.9,4.3c-1.6,2.4-3.8,4.2-5.6,6.5c-2.8,4.8-2.6,10.1-2.1,15.4c-1.5-1.8-3.4-3.8-3.6-6.2
	c-0.4-3.5,0.1-7.2,1.3-10.5C701.7,89.2,705.1,87,707,83.9z"/>
<path d="M275,85.2c1.5,1.3,2.6,1.6,2.2,3.8c-0.2,2.7-2.3,5.3-4.4,6.9c-2.2,0.2-4.5-0.2-6.8-0.4c-7-0.8-14.1-0.3-20.8,2.2
	c0.9,2.5,1.8,4.9,2.9,7.2c-3.3-2.8-4.7-6.5-6.3-10.4c8.7-3.7,18.2-2.8,27.2-1.5c1.6-1.6,3.1-3,4-5C273.6,86.9,274.2,85.9,275,85.2z"
	/>
<path d="M674.9,87c1,0.9,1.9,2,2.8,3c-1.6,1.1-3.1,2-3.9,3.8c-2.6,5.5-0.7,11.7-0.8,17.6c-1.5-1.3-3.1-2.2-3.2-4.4
	c-0.5-4.6-0.7-9.4-0.1-14C670.2,90.4,671.9,87,674.9,87z"/>
<path class="st0" d="M710.4,87.4c0.3,0.2,0.6,0.3,0.9,0.5c1.6,2.6,3.5,3.8,6.2,5c1,3,1.6,5.8,0,8.7c-1.7,3.4-5.9,7.8-9.1,9.8
	c-2.4,1.1-4-0.9-5.7-2.2c-0.6-5.3-0.7-10.6,2.1-15.4C706.6,91.6,708.8,89.8,710.4,87.4z"/>
<path class="st14" d="M711.3,87.9c2.6,1.2,5,2.2,6.2,5C714.9,91.7,712.9,90.5,711.3,87.9z"/>
<path d="M724.2,87.4c3,3.2,5.5,7,5.5,11.5c0.5,7-2.4,12.8-6.4,18.2c-2.4,3.9-7.9,5.7-12.2,6.3c-5.1,0.6-9.3-1.7-12.7-5.2
	c2.4,0.8,5.1,2,7.7,2c3-0.1,6.1-1.1,8.9-2.4c4.1-1.7,6.8-6.5,8.8-10.2C727.1,100.8,727.3,94.5,724.2,87.4z"/>
<path class="st15" d="M749.7,87.7c4.4,3.6,5.3,8.4,6.7,13.6l-1.6,1.3C752.5,97.8,751.6,92.6,749.7,87.7z"/>
<path d="M115,89.5c1,0.8,2.5,1.3,2.7,2.6c0.6,3.9-2.1,6.4-4.6,8.8c-8.6-1.4-19.1-2.2-27.2,1.5c0.9,2.3,1.8,4.6,2.9,6.8
	c-2.7-2.5-4.8-5.7-5.6-9.3c-0.4-0.8-0.1-1.4,1-1.7c7.7-2.6,16-1.8,23.9-1.1c2.8,0.7,5.2-3.1,6.1-5.3C114.4,91.1,114.7,90.3,115,89.5
	z"/>
<path d="M779.2,89.3c3.7,3,5.1,7.3,6.2,11.7c2.1,8.6,0.4,16.4,3.8,24.5c-1,0.6-2,1.9-3.2,1.8c-2.7,0.4-3.8-1.5-5.6-3.1
	c1.6-0.4,4.2-0.3,5-2c-0.3-1.7-0.7-3.4-1.1-5.1c-1.2-5.3-0.8-10.6-1.7-16C782.3,96.8,780.8,93.1,779.2,89.3z"/>
<path d="M743.3,96.6c0.7,1.4,1.4,2.8,1.9,4.3l0.5,2.1c-2.4,6.7-4,14.1-7.4,20.3c-1.6,2.5-4.3-0.6-5.7-1.8c1.4-1.1,2.7-1.8,3.3-3.5
	C739,111.1,740.8,103.7,743.3,96.6z"/>
<path d="M772.8,97.8c0.5,1.6,1,3.3,1.4,4.9c-6,5.2-11,11.4-17,16.5c-1.7,1.5-3.2-1.6-4.3-2.5C759.5,110.6,765.5,103.4,772.8,97.8z"
	/>
<path d="M141,98.9c11.4,1.2,21.4,6.3,33,7.5c5.3,0.4,10.3,0.6,15.1-1.9c0.6,0.8,1.2,1.5,1.8,2.3l0.3,0.7l0.2,0.6
	c-1.9,1.9-4.9,1.7-7.4,2c-14.9,0.6-27.9-7.4-42-7.9c-1.6-0.1-2.2,1.5-1.9,2.8c0.2,3.1,2.4,7.1,0.8,9.8c-1.9,2.8-4.9,2.7-7.9,2.7
	c-0.8-0.8-1.4-1.9-1.9-3c3.1-0.8,6-1,7-4.5c0.4-3.2-1.4-6.7-1.4-10C137.9,98.2,139.2,98.8,141,98.9z"/>
<path class="st8" d="M655.7,106.2c1.3,1.4,2.1,3.4,2.9,5.1c-0.9,1.8-1.6,3.9-2.8,5.6c-2.3,2.2-5.9,0.2-8.2-1.1
	c-0.6-0.7-1.2-1.3-1.8-2c0.4-2,0.4-4.6,1.7-6.2C649.3,105.2,653.3,104.9,655.7,106.2z"/>
<path d="M269.3,109.5c1.8,1.3,3.2,2,2.9,4.5c-0.3,1.8-0.6,5-2.5,5.7c-9.9,3.5-22.6,2.3-30-5.8c8.3,4.8,18.3,5.7,27.2,2
	C268.4,114.5,268.6,111.4,269.3,109.5z"/>
<path d="M658.7,111.3c1,2.6,0.7,5.3-0.2,7.8c-0.5,1.5-1.8,2.6-3.4,2.5c-3.6-0.4-7.1-1.6-7.4-5.8c2.3,1.3,5.9,3.2,8.2,1.1
	C657,115.2,657.8,113.2,658.7,111.3z"/>
<path d="M109.8,114c0.7,0.4,1.3,0.8,2,1.2c0.5,0.8,1.1,1.7,1.6,2.6c-0.6,1.9-1.1,3.9-1.9,5.7c-2,1.5-5,1.8-7.4,2.2
	c-8.7,1.3-18.1-0.9-24-7.8c7.7,5.2,17.3,5.9,26,3.2C109.3,120.5,109.1,116.6,109.8,114z"/>
<path class="st16" d="M685.4,114.6c1.1-0.4,2.1-0.4,2.8,0.2c1.8,4.3-2.3,7.2-6.2,7.4c-5.3-0.2-11.2-0.1-14.8-4.6
	c4.3,0.7,9.4,1.8,13.7,0.8C683,117.9,684.1,115.9,685.4,114.6z"/>
<path d="M628,145.6c4.7,1.3,8.9,0,13.6,0.1c-3.2,3.9-9.4,0.9-12.4,4.5c-1.3,1.2-0.9,3.6-1.2,5.3c4,0.5,8,1.1,12.1,1.4
	c-3.2,2.6-8.3,0.7-12.3,2.1c0.8,2.6,1.5,4.9,4.1,6.2c2,1.4,4.4,0.1,6.6,0c-2.5,3.6-7,2.8-10.2,0.7c-1.9-1.5-2.5-4.5-2.8-6.8
	C625,154.5,625.1,149.4,628,145.6z"/>
<path fill-rule="evenodd" d="M658.1,144c-0.5,4.5,2.3,6.8,4.9,9.9c1.1-0.1,2.3-0.1,3.4-0.2c-0.4,1.5-0.9,3-1.4,4.5c2.4,2,4.8,3,5,6.6c-3.9-2.1-6.4-5.1-9-8.6c-4,0-11-1.9-12.9,2.9c-2.2,3.1-0.1,6.4-3.3,8.9c-0.3-1.8-0.5-3.3,0.2-5C647.7,155.9,651.8,148.5,658.1,144z M655.9,149.6c1,1.2,1.8,2.5,2.7,3.8c-1.6-0.1-3.1-0.2-4.7-0.5C653.6,150.8,654.2,150.6,655.9,149.6z"/>
<path fill-rule="evenodd" d="M552.1,146.4c3.8,0.8,7.6,2.4,10.6,4.9c2.3,2.6,2.8,6.7,1.7,9.9c-2.2,3.5-6.3,5.6-10.4,6.1c-1.7,0.1-3.1,0.6-3.9-1.3C550.8,159.4,551.2,152.9,552.1,146.4z M555,150.4c2.3,0.8,5.5,1.5,6.9,3.7c1.5,2,0.7,5.1-0.8,6.9c-1.9,2.3-5.1,2.9-7.8,3.8C553.6,160.1,554,155.2,555,150.4z"/>
<path class="st17" d="M609.8,146.5c0.3,2.7,0.8,5.7,0.1,8.3c-0.8,3.1-1.9,6.1-2.5,9.2l1.6,1.2c3.5-0.7,7.1-2.3,11-2.5l2,1.6
	c-5.7,0.9-10.5,2.3-15.8,4.5c-2-5.7,0.9-9.6,1.8-14.9C608.4,151.5,606.8,147.7,609.8,146.5z"/>
<path d="M497,148.1c0.1,0.5,0.3,1,0.4,1.5c-6.2,0.1-11.7-0.5-16.2,4.5c0.2,3.2-0.3,6.2,1.9,8.8c2.5,2.4,5.8,2.3,9,2.4
	c0.3-3-0.8-5.8,1.8-8c0.7,3.4,1.2,6.8,0.9,10.2c-4.3,0.2-9.6-0.5-13-3.4c-3.1-3.4-4.4-10.7-0.7-14.1
	C485,146.4,492.1,148.1,497,148.1z"/>
<path class="st18" d="M516,150c1.9,1.7,3.6,4.4,3.5,7c-0.3,3.4-2.1,6.7-4.3,9.2c-2.9,2.5-7.7,3.1-10.6,0.1
	c-3.2-3.1-3.3-8.6-2.3-12.6c0.9-3.2,3.3-4.9,6.5-5.5c-1.5,2.7-3.9,4.8-4.3,7.8c-0.2,2.5-0.8,5.2,1.2,7.1c1.4,1.5,3.8,4,5.9,2.4
	c2.9-2,7-6.2,5.7-10.1c-0.5-3.4-3.9-3.9-6.1-6.3C513.2,146.6,514.1,148.8,516,150z"/>
<path class="st19" d="M535.9,147.7c4.2,1.3,8.1,5.6,7.2,10.3c-1,5.2-4.2,10.5-10.2,10.3c-5.6-0.3-7.9-6.5-7.3-11.3
	c0.3-4.5,2.4-8,7.1-8.7c-2.9,4.3-5.7,7.6-4.2,13.3c1.1,2.1,4.4,6,7.1,4.1c3.4-2.5,6.9-6,5.5-10.6
	C540.7,151.2,534.5,151.6,535.9,147.7z"/>
<path d="M597.3,147.5c0.8,1.6,1.5,3.1,2,4.8c-1.5-0.8-2.8-1.8-4.4-2.4c-2.4,0.7-3.6,2.8-3.9,5.1c-0.3,2.8-0.2,5.9,0.3,8.7
	c1.7,3.4,6,1.8,9,2.3c-2.9,3-9.8,1.9-11.1-2.2c-1.7-3.8-1.4-8.7-0.1-12.5C590.9,147.9,594,147.8,597.3,147.5z"/>
<path d="M723,148c3.6,2.8,6.9,1.2,11,1.6c1.9,0,2.5,2.2,3.4,3.6c-2.2-0.4-4.2-1.3-6.4-1.8c-2.9-0.1-5.8,0.2-7.6,2.8
	c0.6,1.2,1.4,1.7,2.5,1.4c3.8-0.4,7.3-1.2,11.1-0.7c-4.4,2-9.6,2.3-13.9,4.4c-0.4,2.2,0.3,4.7,0.6,6.9c-0.6,0.7-1.3,1.5-1.9,2.2
	c-1-2.9-1-5.9-1.3-8.9c-0.7-0.9-1.5-1.8-2.3-2.6c1.1-0.4,2.2-0.8,3.3-1.2C722,153,722.3,150.5,723,148z"/>
<path d="M755,148c0.2,6-0.2,12-4.4,16.7c-2.8,2.6-7.1,1.6-8.7-1.7c-2.2-3.8-1.5-7.5-0.8-11.6c3.1,2.8,1,6.3,2.7,9.7
	c0.8,1.1,1.5,3,3.1,2.5c2.6,0.2,4-2.7,5-4.6C754.1,155.2,751.2,151.2,755,148z"/>
<path d="M786.2,149.9c-1.1,1.7-3,3-3,5.1c-0.6,4.2-0.9,8.8-2.6,12.7c-0.8,0.4-1.7,0.6-2.5,0.6c-5-3.3-7.7-9.4-12.8-12.4
	c-0.6,2.7-0.4,5.4-0.7,8.1c-0.1,2-1.7,2.6-3,3.8c1.1-5.9,0.2-12.8,3.2-18c4.8,5.2,8.8,11.1,13.7,16.3c2.7-4.2,2-8.6,3.4-13
	C782.7,151.2,783.9,148.9,786.2,149.9z"/>
<path d="M678.1,150c5.2,4.8,8.9,11.2,14,16.2c2.2-4.4,1.8-9.2,3.3-13.7c1-2.3,1.9-2.7,4.5-2.9c-0.9,1-1.9,2-2.9,3
	c-0.9,5.3-1.6,10.6-3.1,15.8c-1.5-0.2-2.9,0-4-1.2c-3.9-3.3-6.8-8.1-10.9-11.1c-1.8,2.3-0.4,7-1.5,9.7c-0.8,0.8-1.6,1.5-2.5,2.1
	C676.1,162.1,675.2,155,678.1,150z"/>
<path d="M574.1,162.9c3.2,0.2,1.6,3.5,1,5.4c-1-0.8-2.1-1.4-2.9-2.4C572,164.5,573.2,163.7,574.1,162.9z"/>
<path d="M707.9,163.1c1.4,1.2,0.2,3.5,0.1,5.1c-1.2-0.7-2.5-1.4-3.4-2.4C704.8,164.5,706.5,162.1,707.9,163.1z"/>
</svg>
